<?xml version="1.0" encoding="UTF-8"?>
<svg width="45px" height="37px" viewBox="0 0 45 37" version="1.1" xmlns="http://www.w3.org/2000/svg" xmlns:xlink="http://www.w3.org/1999/xlink">
    <!-- Generator: Sketch 49.1 (51147) - http://www.bohemiancoding.com/sketch -->
    <title>Agoda_logo_CN_text_dark</title>
    <desc>Created with Sketch.</desc>
    <defs></defs>
    <g id="Agoda_logo_CN_text_dark" stroke="none" stroke-width="1" fill="none" fill-rule="evenodd">
        <g id="Agoda_logo_CN_text_light" transform="translate(0.000000, 12.000000)" fill="#939393" fill-rule="nonzero">
            <path d="M10.5379237,7.05861534 C10.1735513,8.41591305 9.48039462,9.66368625 8.51910532,10.6927538 C9.87670072,11.2307623 11.1899254,11.873581 12.4467676,12.6153303 L11.4177201,13.7251102 C10.1431885,12.9261845 8.8030041,12.2359721 7.41150455,11.6618574 C5.55723204,12.802871 3.46833164,13.5134365 1.30006205,13.740741 C1.09476932,13.2936996 0.830607578,12.8758197 0.514529595,12.4981001 C2.3922668,12.3693745 4.22735072,11.8810937 5.91899289,11.0600754 C5.0941838,10.7396459 4.25366409,10.4426626 3.4602763,10.1769406 L3.138208,10.7474613 L1.70853893,10.3645091 C2.25055632,9.48137433 2.91825891,8.28562555 3.56239552,7.05079998 L0.192461289,7.05079998 L0.192461289,5.75345162 L4.24580876,5.75345162 C4.64643031,4.97191646 5.03134121,4.19038131 5.35340951,3.49481502 L6.70452537,3.76835233 C6.40602302,4.3857651 6.08395472,5.04225465 5.74617577,5.71437487 L13.0830489,5.71437487 L13.0830489,7.01953859 L10.5379237,7.05861534 Z M1.89706672,4.94847043 L0.498818946,4.94847043 L0.498818946,1.70509951 L5.84829496,1.70509951 L5.84829496,0.259259467 L7.30938535,0.259259467 L7.30938535,1.71291486 L12.8081125,1.71291486 L12.8081125,4.94847043 L11.3470222,4.94847043 L11.3470222,2.98681717 L1.92063269,2.98681717 L1.89706672,4.94847043 Z M5.0941838,7.05861534 C4.72498356,7.77762767 4.3557833,8.46537865 4.0022937,9.11405283 C5.00777522,9.40322082 6.07609939,9.76272701 7.14442352,10.1691253 C8.03947607,9.32032103 8.67414136,8.23631121 8.97471413,7.04298462 L5.0941838,7.05861534 Z" id="Shape"></path>
            <path d="M28.551754,2.65264706 L26.8263032,2.65264706 L26.8263032,11.889862 C26.8263032,12.7707104 26.6096547,13.2228272 25.9983963,13.4488857 C24.9871436,13.7015859 23.9424976,13.7910426 22.9034173,13.7139197 C22.779049,13.2028056 22.5891763,12.7101736 22.3385836,12.2484375 C23.4450386,12.3030033 24.6598179,12.2952082 24.9925281,12.2952082 C25.3252384,12.2952082 25.4103503,12.1938717 25.4103503,11.8820669 L25.4103503,2.65264706 L15.6611664,2.65264706 L15.6611664,1.2962965 L28.5440166,1.2962965 L28.551754,2.65264706 Z M18.3924854,10.0658044 L18.3924854,11.2038916 L17.0925942,11.2038916 L17.0925942,4.55465588 L23.0736412,4.55465588 L23.0736412,10.0502142 L18.3924854,10.0658044 Z M18.3924854,5.85644061 L18.3924854,8.77960991 L21.7273253,8.77960991 L21.7273253,5.85644061 L18.3924854,5.85644061 Z" id="Shape"></path>
            <path d="M34.2442966,10.6990906 C34.9064813,11.720895 36.1111787,12.1961529 37.7466951,12.2832835 C39.3822115,12.3704141 42.7170693,12.3308093 44.5360826,12.1961529 C44.3368434,12.6338198 44.1921668,13.0939996 44.1052637,13.5664797 C42.4298566,13.6536103 39.4061458,13.6852942 37.7227607,13.6219265 C35.8399223,13.5347959 34.5315092,13.0278541 33.59009,11.8951562 C32.8880147,12.5050705 32.1221143,13.1149848 31.3003671,13.740741 L30.614248,12.3624931 C31.3003671,11.950603 32.1061581,11.3802935 32.8401459,10.833747 L32.8401459,5.9684989 L30.8775263,5.9684989 L30.8775263,4.69322364 L34.212384,4.69322364 L34.2442966,10.6990906 Z M34.020909,3.11080666 C33.3198932,2.36554487 32.5136838,1.72519862 31.6274704,1.2097752 L32.5688895,0.362232004 C33.4619515,0.831752675 34.2706718,1.44465266 34.9623282,2.17613286 L34.020909,3.11080666 Z M38.5125955,3.55438068 C38.5764205,2.55633916 38.5843986,1.46324606 38.6003549,0.259259467 L39.9885493,0.259259467 C39.9885493,1.4315622 39.9406805,2.53257626 39.8848336,3.55438068 L44.0733511,3.55438068 L44.0733511,4.86133981 L40.0842868,4.86133981 C40.6666902,7.52278385 41.8793657,9.3604476 44.3366294,10.1763069 C43.9837315,10.5324862 43.6853649,10.9381328 43.4510571,11.3802935 C41.4348344,10.6053876 39.9116092,8.92242666 39.3502989,6.84950187 C38.8672179,8.88722175 37.4495715,10.5820729 35.5207972,11.4278193 C35.2907381,11.0205185 34.9879572,10.6581744 34.6272467,10.3584891 C37.1563136,9.21787025 38.0418859,7.40396939 38.3530329,4.86133981 L34.7628749,4.86133981 L34.7628749,3.55438068 L38.5125955,3.55438068 Z" id="Shape"></path>
        </g>
    </g>
</svg>