<?xml version="1.0" encoding="UTF-8"?>
<svg width="46px" height="46px" viewBox="0 0 46 46" version="1.1" xmlns="http://www.w3.org/2000/svg" xmlns:xlink="http://www.w3.org/1999/xlink">
    <!-- Generator: Sketch 49.1 (51147) - http://www.bohemiancoding.com/sketch -->
    <title>Alipay Copy</title>
    <desc>Created with Sketch.</desc>
    <defs></defs>
    <g id="Page-1-Copy-2" stroke="none" stroke-width="1" fill="none" fill-rule="evenodd">
        <g id="Artboard-Copy" transform="translate(-515.000000, -61.000000)">
            <g id="Alipay-Copy" transform="translate(516.000000, 62.000000)">
                <g id="Group-10">
                    <path d="M44.4457805,6.87502344 L44.4457805,36.9897038 C44.4051018,40.750747 41.3003959,43.7839453 37.476759,43.7839453 L6.96918552,43.7839453 C3.12012443,43.7839453 0,40.7105176 0,36.919262 L0,6.87502344 C0,3.08376783 3.12012443,0.0105016456 6.96918552,0.0105016456 L37.476759,0.0105016456 C41.3258201,0.0105016456 44.4457805,3.08376783 44.4457805,6.87502344" id="Fill-9" stroke="#FFFFFF" fill="#299DD8"></path>
                    <path d="M11.6079628,33.5916935 C5.68395826,33.5916935 4.76639039,30.3049494 4.6643655,28.3430419 C4.56742545,26.6268571 5.74514039,23.4053377 12.4340035,23.4053377 C14.9219673,23.4053377 18.8678044,24.6547783 23.2981777,26.4762267 C20.7949594,29.7127607 16.7826913,33.5916935 11.6079628,33.5916935 Z M29.6709605,24.5191626 C31.9548745,20.2036763 33.4690092,15.6474721 33.4690092,15.6474721 L24.6543542,15.6474721 L24.6543542,12.5914362 L35.5185284,12.5914362 L35.5185284,10.7297874 L24.6543542,10.7297874 L24.6543542,5.81210273 L19.5969051,5.81210273 L19.5969051,10.7297874 L8.73273088,10.7297874 L8.73273088,12.5914362 L19.5969051,12.5914362 L19.5969051,15.6474721 L10.4609209,15.6474721 L10.4609209,17.2832561 L28.1159831,17.2832561 C28.1159831,17.2832561 27.1370691,20.2438767 25.4954854,23.1744681 C20.7593655,21.7341967 16.3901743,20.7306403 12.8826178,20.7306403 C4.47064944,20.7306403 2.60467658,24.8904914 3.00227839,28.6941897 C3.32360758,31.7300447 5.61769129,36.1608044 12.6277196,36.1608044 C19.0310114,36.1608044 24.2004911,32.5479367 27.3817976,28.2476265 C33.4486698,30.9973969 39.8570465,34.3845612 44.4147049,36.8836039 L44.4147049,29.6677169 C39.5970635,28.0417812 34.5243598,26.1449369 29.6709605,24.5191626 Z" id="Fill-11" fill="#FFFFFE"></path>
                </g>
            </g>
        </g>
    </g>
</svg>