<?xml version="1.0" encoding="UTF-8"?>
<svg width="235px" height="200px" viewBox="0 0 235 200" version="1.1" xmlns="http://www.w3.org/2000/svg" xmlns:xlink="http://www.w3.org/1999/xlink">
    <!-- Generator: Sketch 49.2 (51160) - http://www.bohemiancoding.com/sketch -->
    <title>Page 1</title>
    <desc>Created with Sketch.</desc>
    <defs></defs>
    <g id="Page-1" stroke="none" stroke-width="1" fill="none" fill-rule="evenodd">
        <g id="MAR-1477-V1" transform="translate(-811.000000, -509.000000)">
            <g id="Insider-Deals" transform="translate(750.000000, 425.000000)">
                <g id="Page-1" transform="translate(61.000000, 84.000000)">
                    <path d="M54.4763415,50.1274738 C96.6725365,59.4982233 139.29196,30.1776834 182.008213,35.7982096 C192.729038,37.2087911 203.790049,41.2385661 210.852833,50.4503046 C212.700931,52.8611167 214.265593,55.6707386 214.743649,58.812809 C215.961713,66.8213856 210.139437,73.6726442 206.486847,80.6748991 C201.934256,89.4025517 200.522853,100.149901 202.636431,109.992554 C204.577189,119.030855 209.25226,126.958323 212.709588,135.400012 C216.166595,143.841702 218.401369,153.757128 215.228118,162.339555 C212.410122,169.961824 205.93633,174.950154 199.618042,179.117781 C190.524082,185.116279 180.461185,190.491877 169.949729,189.722148 C161.581029,189.108866 153.683971,184.623858 145.301162,184.335971 C137.4833,184.06764 129.990553,187.454318 122.506143,190.019332 C93.8760226,199.83185 62.2643859,197.739381 34.6214776,184.815568 C27.042803,181.272124 19.6305342,176.845462 13.8310223,170.29844 C8.03151028,163.751098 3.97172364,154.825643 4.19744547,145.571908 C4.37058437,138.460654 7.00261632,131.716471 10.1232847,125.5362 C15.7118237,114.469227 23.0288661,104.517895 31.6364346,96.2784955 C39.3802324,88.8658895 48.9775782,81.2051495 49.5139882,69.7618069 C49.7477257,64.784057 48.1247088,59.9560212 47.5331509,55.0164211 C47.5331509,55.0164211 45.5814907,48.1520185 54.4763415,50.1274738" id="Fill-1" fill="#787C84"></path>
                    <path d="M209.191656,184.829871 C209.902334,181.457619 208.892303,177.389045 207.395219,175.395888 C205.89781,173.402732 204.051211,172.973519 202.278723,172.604308 C148.001792,161.306369 93.3484875,157.72314 38.8336937,161.890912 C30.4909895,162.5282 22.1023307,163.360496 13.9518591,167.090829 C12.0612475,167.95603 9.84960075,169.671915 9.47646222,173.594354 C9.01206172,178.476837 11.7269438,181.879574 14.0110823,183.47255 C26.5984395,192.252793 40.0194522,194.360632 53.2841545,195.940543 C74.6844417,198.489209 96.1183857,199.838787 117.553948,199.986859 C143.266202,200.165415 169.061303,198.601472 194.474529,190.53352 C194.474529,190.53352 200.448629,189.126359 209.191656,184.829871" id="Fill-1" fill="#646870"></path>
                    <polygon id="Fill-3" fill="#FFD88A" points="48.6104297 173.51474 177.23577 173.51474 177.23577 116.472626 48.6104297 116.472626"></polygon>
                    <polygon id="Fill-5" fill="#E9B44E" points="183.908009 116.569443 187.899058 74.8351936 30.2567752 68.116878 42.8477718 116.569443"></polygon>
                    <path d="M114.575998,71.6733921 C119.750715,67.6639025 126.992287,62.2762261 132.167004,58.2663919 C134.541923,56.4261681 138.104301,53.9757521 140.665987,52.4053083 C146.052972,49.1028284 152.392751,46.128357 156.689451,49.8212083 C160.986152,53.5140596 162.037153,66.0186921 160.792492,71.5455653 C160.676365,72.0613517 160.150175,73.3130898 159.689457,73.572878 L114.575998,71.6733921 Z" id="Fill-6" fill="#3E2867"></path>
                    <path d="M115.116419,71.8841858 C110.333157,67.41576 103.617775,61.3844704 98.8341679,56.9160445 C96.6384364,54.8649582 94.1311951,53.2273278 91.7159594,51.4394751 C86.7376588,47.7538593 78.6060093,42.5770455 73.9878058,45.8588526 C69.3692578,49.1406597 68.3768368,61.887164 69.1077135,67.5049975 C69.176287,68.0293976 69.5849715,69.324204 70.0195003,69.6253378 L115.116419,71.8841858 Z" id="Fill-7" fill="#3E2867"></path>
                    <polygon id="Fill-8" fill="#4B3278" points="127.943012 116.462083 100.549781 116.462083 100.549781 71.0108633 127.943012 72.053117"></polygon>
                    <polygon id="Fill-9" fill="#3E2867" points="105.718399 174.059468 122.774601 174.059468 122.774601 116.603898 105.718399 116.603898"></polygon>
                    <path d="M171.203263,66.003153 C171.203263,66.003153 177.08577,46.3016295 196.168509,50.7169952" id="Stroke-10" stroke="#D4D7E0" stroke-width="2.30329453" stroke-linecap="round"></path>
                    <polygon id="Fill-11" fill-opacity="0.3" fill="#231F20" points="177.044798 121.222167 48.3467489 123.978541 48.3467489 116.866753 177.044798 116.866753"></polygon>
                    <path d="M171.476179,15.7382031 C170.963084,15.7382031 170.543717,15.139381 170.537514,14.6249728 L170.523386,13.360831 C170.517528,12.8419437 170.93276,12.3702593 171.451369,12.3640575 C171.977214,12.3723266 172.395547,12.7496052 172.40175,13.2684925 L172.415878,14.6136027 C172.421736,15.13249 172.006504,15.7382031 171.487895,15.7382031 L171.476179,15.7382031 Z" id="Fill-12" fill="#D4D7E0"></path>
                    <path d="M171.462706,22.396292 L171.451334,22.396292 C170.932725,22.396292 170.517494,21.8991111 170.523352,21.3802238 L170.53748,20.1763778 C170.543683,19.6574905 170.973387,19.2154371 171.487861,19.2319753 C172.00647,19.2385217 172.421701,19.6554232 172.415843,20.1739659 L172.401715,21.4070985 C172.395513,21.9218512 171.976146,22.396292 171.462706,22.396292" id="Fill-13" fill="#D4D7E0"></path>
                    <path d="M168.546125,17.7868087 L168.534409,17.7868087 L167.362801,18.0279914 C166.844537,18.021445 166.42896,17.7237567 166.435163,17.2052139 C166.441366,16.6866712 166.875205,16.3503936 167.385544,16.3414354 L168.556807,16.3872601 C169.075416,16.3938065 169.490648,16.5798617 169.48479,17.0984045 C169.478587,17.6131572 169.059221,17.7868087 168.546125,17.7868087" id="Fill-14" fill="#D4D7E0"></path>
                    <path d="M174.272946,17.7868087 C173.75985,17.7868087 173.340483,17.6290064 173.334281,17.1142536 C173.328078,16.5957109 173.743654,16.2980225 174.262263,16.2918207 L175.433527,16.3414354 C175.955926,16.3596964 176.377705,16.7821106 176.383908,17.3009979 C176.39011,17.8195407 175.974189,18.0055959 175.45627,18.0121423 L174.284662,17.7868087 L174.272946,17.7868087 Z" id="Fill-15" fill="#D4D7E0"></path>
                    <path d="M22.7256094,137.240556 C22.7256094,138.625289 21.6029331,139.747477 20.218368,139.747477 C18.8334583,139.747477 17.7107821,138.625289 17.7107821,137.240556 C17.7107821,135.855478 18.8334583,134.73329 20.218368,134.73329 C21.6029331,134.73329 22.7256094,135.855478 22.7256094,137.240556" id="Fill-16" fill="#FCC22C"></path>
                    <path d="M29.5751749,123.663246 C29.5751749,124.776132 28.6726921,125.679189 27.5589752,125.679189 C26.4456029,125.679189 25.5427755,124.776132 25.5427755,123.663246 C25.5427755,122.550016 26.4456029,121.646959 27.5589752,121.646959 C28.6726921,121.646959 29.5751749,122.550016 29.5751749,123.663246" id="Fill-17" fill="#FEFEFE"></path>
                    <path d="M38.3995894,7.09307907 L40.7714066,7.75667597 C41.2004219,7.87657821 41.5360532,8.19769571 41.6611396,8.60805081 L42.3548005,10.8779243 C42.7217895,12.0803922 44.5016,12.0803922 44.8689336,10.8779243 L45.56225,8.60805081 C45.687681,8.19769571 46.0229676,7.87657821 46.451983,7.75667597 L48.8238002,7.09307907 C50.0801776,6.74164146 50.0801776,5.03820269 48.8238002,4.68676508 L46.451983,4.02316818 C46.0229676,3.90326594 45.687681,3.58249298 45.56225,3.17179334 L44.8689336,0.901919836 C44.5016,-0.300548066 42.7217895,-0.300548066 42.3548005,0.901919836 L41.6611396,3.17179334 C41.5360532,3.58249298 41.2004219,3.90326594 40.7714066,4.02316818 L38.3995894,4.68676508 C37.143212,5.03820269 37.143212,6.74164146 38.3995894,7.09307907" id="Fill-18" fill="#FCC22C"></path>
                    <path d="M36.6116809,38.9429739 C45.3467085,43.4527453 52.5514092,50.8646334 56.811583,59.723273" id="Stroke-19" stroke="#D4D7E0" stroke-width="2.30329453" stroke-linecap="round"></path>
                    <path d="M199.052491,43.3333943 C206.27132,43.3333943 212.123158,37.4929836 212.123158,30.2885126 C212.123158,23.0836971 206.27132,17.2436309 199.052491,17.2436309 C191.834007,17.2436309 185.981825,23.0836971 185.981825,30.2885126 C185.981825,37.4929836 191.834007,43.3333943 199.052491,43.3333943" id="Fill-20" fill="#F8D793"></path>
                    <path d="M199.052491,39.7326748 C204.278897,39.7326748 208.515294,35.504398 208.515294,30.2883059 C208.515294,25.0725583 204.278897,20.8442815 199.052491,20.8442815 C193.82643,20.8442815 189.589688,25.0725583 189.589688,30.2883059 C189.589688,35.504398 193.82643,39.7326748 199.052491,39.7326748 Z" id="Stroke-21" stroke="#E8B34C" stroke-width="1.46621149"></path>
                    <path d="M201.833131,33.5624641 C201.369657,33.986601 200.759042,34.2522465 200.000598,34.3594005 L200.000598,36.0566374 L198.472339,36.0566374 L198.472339,34.3480305 C197.928575,34.2639611 197.405831,34.1147724 196.904107,33.9008089 C196.402383,33.6865009 195.959929,33.4191326 195.577088,33.0980151 L196.392734,31.4583175 C196.799007,31.8176797 197.279366,32.1119225 197.834501,32.3410461 C198.389982,32.5705142 198.882402,32.6852482 199.311417,32.6852482 C199.625339,32.6852482 199.87241,32.6280535 200.052287,32.5133194 C200.232163,32.3985854 200.322101,32.2304466 200.322101,32.0085585 C200.322101,31.8252597 200.255251,31.672281 200.121205,31.5499669 C199.987159,31.4276528 199.818654,31.3301461 199.615346,31.2574468 C199.412727,31.1847474 199.127061,31.0989553 198.759727,30.9993813 C198.208038,30.8467471 197.752489,30.6917011 197.392392,30.5349324 C197.032295,30.3781637 196.724231,30.1414601 196.46751,29.8241326 C196.211135,29.5068051 196.082603,29.0843909 196.082603,28.5568899 C196.082603,27.9146549 196.295215,27.3816412 196.720095,26.9571597 C197.14532,26.5330228 197.729401,26.2632427 198.472339,26.1488532 L198.472339,24.5205256 L200.000598,24.5205256 L200.000598,26.1257686 C200.460282,26.1795179 200.90825,26.2808146 201.344846,26.4296588 C201.781787,26.5788475 202.171864,26.7642136 202.516799,26.9861016 L201.72424,28.6599094 C201.29488,28.4080458 200.837264,28.2013178 200.351047,28.0411036 C199.864485,27.8802003 199.456834,27.7999209 199.127061,27.7999209 C198.866895,27.7999209 198.662208,27.8478129 198.512656,27.9432523 C198.363448,28.0390363 198.288672,28.1785777 198.288672,28.3618765 C198.288672,28.5379399 198.353455,28.6850613 198.48371,28.8032408 C198.613965,28.9221094 198.774889,29.0175488 198.966482,29.0902482 C199.157729,29.162603 199.441672,29.2563197 199.816587,29.3710537 C200.375857,29.5316125 200.837264,29.6921712 201.201152,29.85273 C201.565384,30.0132887 201.877239,30.2599842 202.137749,30.5924717 C202.39826,30.9249592 202.528515,31.3587435 202.528515,31.8938245 C202.528515,32.5818842 202.296605,33.1383271 201.833131,33.5624641" id="Fill-22" fill="#E2B75B"></path>
                    <path d="M217.996257,75.9203089 C227.052788,75.9203089 234.394636,68.5928348 234.394636,59.5543418 C234.394636,50.5155043 227.052788,43.1880301 217.996257,43.1880301 C208.939727,43.1880301 201.597879,50.5155043 201.597879,59.5543418 C201.597879,68.5928348 208.939727,75.9203089 217.996257,75.9203089" id="Fill-23" fill="#F8D793"></path>
                    <path d="M217.996257,71.4028541 C224.552783,71.4028541 229.868093,66.0982135 229.868093,59.5542384 C229.868093,53.0102634 224.552783,47.7056228 217.996257,47.7056228 C211.439732,47.7056228 206.124421,53.0102634 206.124421,59.5542384 C206.124421,66.0982135 211.439732,71.4028541 217.996257,71.4028541 Z" id="Stroke-24" stroke="#E8B34C" stroke-width="1.83934521"></path>
                    <path d="M221.484893,63.6616483 C220.903568,64.1939729 220.136854,64.5271495 219.18544,64.6615227 L219.18544,66.7908212 L217.268482,66.7908212 L217.268482,64.6470518 C216.585848,64.5416205 215.930092,64.3545316 215.30087,64.0861298 C214.671303,63.8173834 214.116167,63.4817949 213.635808,63.0790198 L214.658897,61.0217316 C215.168547,61.4723987 215.77158,61.8417527 216.467998,62.1294492 C217.165105,62.4171457 217.782611,62.5611662 218.320517,62.5611662 C218.714729,62.5611662 219.024516,62.4891559 219.250567,62.3451354 C219.476274,62.2014595 219.5893,61.9902523 219.5893,61.7122032 C219.5893,61.482046 219.50522,61.2901335 219.33706,61.1368102 C219.168555,60.983487 218.957321,60.8611729 218.702668,60.769868 C218.448016,60.6789077 218.089986,60.57072 217.628924,60.4459941 C216.936986,60.2544262 216.364965,60.0601019 215.913207,59.8637103 C215.461793,59.6669741 215.074818,59.3696303 214.75297,58.9716789 C214.430778,58.573383 214.270199,58.0434702 214.270199,57.381596 C214.270199,56.5760459 214.536568,55.9072808 215.069994,55.3746116 C215.60342,54.842287 216.336364,54.5042867 217.268482,54.3606107 L217.268482,52.3174489 L219.18544,52.3174489 L219.18544,54.3316688 C219.762284,54.3988554 220.324312,54.5259931 220.872211,54.713082 C221.42011,54.8998263 221.909773,55.1327398 222.342234,55.410789 L221.34809,57.5111455 C220.809495,57.1945072 220.235407,56.9357526 219.625482,56.7345373 C219.014867,56.5329775 218.503495,56.4323699 218.089986,56.4323699 C217.763314,56.4323699 217.50625,56.4919765 217.318792,56.6122233 C217.131335,56.7321255 217.037951,56.9071552 217.037951,57.1369679 C217.037951,57.3578223 217.119274,57.5424993 217.282955,57.6909989 C217.445946,57.8398431 217.647876,57.9597453 217.888056,58.0507056 C218.12858,58.141666 218.483853,58.2595009 218.954909,58.4031769 C219.656495,58.6047367 220.235407,58.805952 220.69199,59.0075118 C221.148228,59.2090716 221.540027,59.5181299 221.866699,59.935376 C222.193716,60.352622 222.356707,60.8970057 222.356707,61.5681827 C222.356707,62.4316166 222.066217,63.1293237 221.484893,63.6616483" id="Fill-25" fill="#E2B75B"></path>
                    <path d="M16.6520274,42.4148329 C25.7085581,42.4148329 33.0504058,35.0873587 33.0504058,26.0485212 C33.0504058,17.0100282 25.7085581,9.68255407 16.6520274,9.68255407 C7.59549674,9.68255407 0.253993593,17.0100282 0.253993593,26.0485212 C0.253993593,35.0873587 7.59549674,42.4148329 16.6520274,42.4148329" id="Fill-26" fill="#F8D793"></path>
                    <path d="M16.6521997,37.8973781 C23.2087254,37.8973781 28.5240357,32.5927374 28.5240357,26.0487624 C28.5240357,19.5047874 23.2087254,14.1998022 16.6521997,14.1998022 C10.0953294,14.1998022 4.78001908,19.5047874 4.78001908,26.0487624 C4.78001908,32.5927374 10.0953294,37.8973781 16.6521997,37.8973781 Z" id="Stroke-27" stroke="#E8B34C" stroke-width="1.83934521"></path>
                    <path d="M20.1404905,30.1561722 C19.5591662,30.6884969 18.7927966,31.0216735 17.8413819,31.1560467 L17.8413819,33.2853452 L15.9240797,33.2853452 L15.9240797,31.1415757 C15.2417903,31.0361445 14.5860343,30.8490556 13.9564673,30.5803092 C13.3272448,30.3119073 12.7721093,29.9763189 12.2914054,29.5735438 L13.3148395,27.5159111 C13.8241445,27.9669227 14.4271781,28.3362767 15.1239403,28.6239732 C15.8207025,28.9116696 16.4382089,29.0556902 16.9764595,29.0556902 C17.3703265,29.0556902 17.6804581,28.9836799 17.906165,28.8396594 C18.1318718,28.6959834 18.2448975,28.4847763 18.2448975,28.2067271 C18.2448975,27.97657 18.1608174,27.7846575 17.9926572,27.6309896 C17.824497,27.4776664 17.6132629,27.3553523 17.3586105,27.264392 C17.1036134,27.1730871 16.7455838,27.065244 16.2845215,26.9405181 C15.5925835,26.7486056 15.0209077,26.5546258 14.5691494,26.3578897 C14.1173911,26.1614981 13.7304158,25.8638097 13.4085682,25.4658583 C13.0867206,25.0679069 12.9257967,24.5379941 12.9257967,23.87612 C12.9257967,23.0705698 13.1925099,22.4014602 13.7259362,21.8691356 C14.2593624,21.336811 14.9919621,20.9988107 15.9240797,20.8547902 L15.9240797,18.8119729 L17.8413819,18.8119729 L17.8413819,20.8261928 C18.417882,20.8933794 18.9802539,21.0205171 19.5278084,21.2072614 C20.0757075,21.3943503 20.5657154,21.6272638 20.9981766,21.905313 L20.0036881,24.0056695 C19.4654375,23.6890311 18.8913495,23.4302766 18.2810796,23.2287168 C17.6708096,23.0275015 17.1590925,22.9268939 16.7455838,22.9268939 C16.4189118,22.9268939 16.1621918,22.9865004 15.9747345,23.1067472 C15.7872772,23.2263049 15.6935486,23.4013346 15.6935486,23.6314918 C15.6935486,23.8523462 15.7752166,24.0370233 15.9385525,24.1855229 C16.1018885,24.334367 16.3038186,24.4542693 16.5439982,24.5452296 C16.7841779,24.6361899 17.1397954,24.7536804 17.6108508,24.8977009 C18.3120927,25.0992607 18.8913495,25.3004759 19.3475875,25.5020357 C19.8041701,25.703251 20.1959696,26.0126539 20.5226415,26.4298999 C20.8493134,26.847146 21.0126494,27.3915297 21.0126494,28.0627066 C21.0126494,28.9261406 20.7218149,29.6238476 20.1404905,30.1561722" id="Fill-28" fill="#E2B75B"></path>
                </g>
            </g>
        </g>
    </g>
</svg>