<?xml version="1.0" encoding="UTF-8"?>
<svg width="71px" height="45px" viewBox="0 0 71 45" version="1.1" xmlns="http://www.w3.org/2000/svg" xmlns:xlink="http://www.w3.org/1999/xlink">
    <!-- Generator: Sketch 49.1 (51147) - http://www.bohemiancoding.com/sketch -->
    <title>union pay copy</title>
    <desc>Created with Sketch.</desc>
    <defs></defs>
    <g id="Page-1-Copy-2" stroke="none" stroke-width="1" fill="none" fill-rule="evenodd">
        <g id="Artboard-Copy" transform="translate(-647.000000, -60.000000)">
            <g id="union-pay-copy" transform="translate(648.000000, 61.000000)">
                <g id="Group-3" transform="translate(0.000000, 0.343370)" fill="#E21837">
                    <path d="M13.4795294,0.0752901296 L30.65933,0.0752901296 C33.0574756,0.0752901296 34.5490409,2.02998604 33.9895992,4.43608774 L25.9911745,38.7764267 C25.4267079,41.1741535 23.0256311,43.1305244 20.6258106,43.1305244 L3.44768495,43.1305244 C1.05288933,43.1305244 -0.442025922,41.1741535 0.117415753,38.7764267 L8.11919043,4.43608774 C8.6786321,2.02998604 11.0784526,0.0752901296 13.4795294,0.0752901296" id="Fill-1"></path>
                </g>
                <g id="Group-6" transform="translate(15.493519, 0.343370)" fill="#00457C">
                    <path d="M13.7363031,0.0752901296 L33.4926341,0.0752901296 C35.8903609,0.0752901296 34.8091645,2.02998604 34.2451167,4.43608774 L26.2479482,38.7764267 C25.6868315,41.1741535 25.8618664,43.1305244 23.4591147,43.1305244 L3.70278365,43.1305244 C1.3000319,43.1305244 -0.186927218,41.1741535 0.377539382,38.7764267 L8.37428913,4.43608774 C8.94210568,2.02998604 11.3369013,0.0752901296 13.7363031,0.0752901296" id="Fill-4"></path>
                </g>
                <g id="Group-9" transform="translate(34.336989, 0.343370)" fill="#007B84">
                    <path d="M31.0454955,0.0752901296 L13.8656949,0.0752901296 C11.4625244,0.0752901296 9.06479761,2.02998604 8.50535593,4.43608774 L0.506512463,38.7764267 C-0.0558604187,41.1741535 1.43402991,43.1305244 3.83678166,43.1305244 L21.0086261,43.1305244 C23.4101216,43.1305244 25.8128734,41.1741535 26.37734,38.7764267 L34.3740897,4.43608774 C34.9385563,2.02998604 33.4465723,0.0752901296 31.0454955,0.0752901296" id="Fill-7"></path>
                </g>
                <path d="M38.9525741,43.0552343 L20.6257506,43.0552343 L3.44762499,43.0552343 C1.05282938,43.0552343 -0.442085878,41.0988634 0.117355797,38.7011366 L8.11913047,4.36079761 C8.67857215,1.95469591 11.0783927,0 13.4794695,0 L30.6592701,0 L48.9860936,0 L65.3824246,0 C67.7835014,0 69.2754854,1.95469591 68.7110188,4.36079761 L60.7142691,38.7011366 C60.1498025,41.0988634 57.7470507,43.0552343 55.3455552,43.0552343 L38.9525741,43.0552343 Z" id="Combined-Shape" stroke="#FFFFFF"></path>
                <path d="M51.0176052,25.7722971 L48.9222114,32.7029252 L49.4883529,32.7029252 L49.0499282,34.1341914 L48.4904865,34.1341914 L48.3577448,34.5755474 L46.3641057,34.5755474 L46.4997787,34.1341914 L42.4530389,34.1341914 L42.8571266,32.8092861 L43.2691705,32.8092861 L45.3922014,25.7722971 L45.8159701,24.354012 L47.8477149,24.354012 L47.634993,25.0688076 C47.634993,25.0688076 48.1764287,24.6797946 48.6898086,24.5470528 C49.2019322,24.4113799 52.1477946,24.3623868 52.1477946,24.3623868 L51.7127198,25.7722971 L51.0176052,25.7722971 Z M47.4352522,25.7722971 L46.8971665,27.5435833 C46.8971665,27.5435833 47.5022512,27.2705623 47.8280339,27.1805324 C48.1617727,27.0921775 48.6604965,27.0628654 48.6604965,27.0628654 L49.0499282,25.7722971 L47.4352522,25.7722971 Z M46.6291705,28.4204327 L46.07266,30.2641615 C46.07266,30.2641615 46.6894696,29.9501037 47.0181834,29.8500239 C47.3519222,29.7750688 47.8590209,29.711001 47.8590209,29.711001 L48.2518026,28.4204327 L46.6291705,28.4204327 Z M45.3352522,32.7192562 L46.9545344,32.7192562 L47.4189212,31.1636231 L45.804664,31.1636231 L45.3352522,32.7192562 Z" id="Fill-10" fill="#FEFEFE"></path>
                <path d="M51.9139681,24.3623031 L54.085992,24.3623031 L54.107348,25.1704786 C54.0926919,25.3078265 54.2103589,25.3714756 54.4641176,25.3714756 L54.9058923,25.3714756 L54.5018046,26.7064307 L53.3289033,26.7064307 C52.3147059,26.7784546 51.9286241,26.3429611 51.955005,25.8526122 L51.9139681,24.3623031 Z" id="Fill-12" fill="#FEFEFE"></path>
                <path d="M52.2018544,30.6941695 L50.1328415,30.6941695 L50.4875174,29.5066122 L52.853001,29.5066122 L53.187996,28.4203908 L50.8539182,28.4203908 L51.2513061,27.0808295 L57.7468594,27.0808295 L57.3427717,28.4203908 L55.1640479,28.4203908 L54.8240279,29.5066122 L57.0090329,29.5066122 L56.6459821,30.6941695 L54.2859422,30.6941695 L53.8655234,31.1945683 L54.8240279,31.1945683 L55.0576869,32.6915773 C55.0840678,32.8402313 55.0840678,32.9382173 55.1330608,33.0022851 C55.1820538,33.0546281 55.4701496,33.0822652 55.6368096,33.0822652 L55.9278365,33.0822652 L55.4848056,34.5382373 L54.7469791,34.5382373 C54.634337,34.5382373 54.4639083,34.5298624 54.2285743,34.5202313 C54.0091525,34.5005503 53.8537986,34.3711585 53.7034696,34.2962034 C53.5677966,34.2321356 53.3663809,34.0688255 53.3173878,33.7891047 L53.08666,32.2954457 L52.0121635,33.7660738 C51.6717248,34.2321356 51.2106879,34.5872303 50.4305683,34.5872303 L48.9289531,34.5872303 L49.322991,33.2866122 L49.8970887,33.2866122 C50.0641675,33.2866122 50.2077966,33.2212881 50.3175075,33.1655952 C50.4272183,33.1199521 50.5252044,33.0625842 50.6349153,32.9009492 L52.2018544,30.6941695 Z" id="Fill-14" fill="#FEFEFE"></path>
                <path d="M29.5504546,27.4406979 L35.0301356,27.4406979 L34.6243729,28.7459222 L32.434343,28.7459222 L32.0922293,29.8614556 L34.333346,29.8614556 L33.9242333,31.2093918 L31.6852104,31.2093918 L31.1404247,33.0217149 C31.0751007,33.2214556 31.6734855,33.2474177 31.8895573,33.2474177 L33.0084407,33.0937388 L32.5587099,34.5869791 L30.0345224,34.5869791 C29.8301755,34.5869791 29.6798465,34.557667 29.4604247,34.508674 C29.2477029,34.454656 29.1530668,34.3596012 29.0596869,34.2159721 C28.9679821,34.0685743 28.8243529,33.9475573 28.922339,33.6301496 L29.6484407,31.2324227 L28.4039342,31.2324227 L28.817653,29.8614556 L30.0655095,29.8614556 L30.3975733,28.7459222 L29.1530668,28.7459222 L29.5504546,27.4406979 Z" id="Fill-16" fill="#FEFEFE"></path>
                <path d="M33.2356929,25.0918385 L35.4830907,25.0918385 L35.0760718,26.4577807 L32.0054237,26.4577807 L31.6737787,26.7454576 C31.5297308,26.8844806 31.4807378,26.8275314 31.2939781,26.9271924 C31.1206181,27.0138724 30.7575673,27.1872323 30.2848056,27.1872323 L29.3015952,27.1872323 L29.6977268,25.8753081 L29.9937787,25.8753081 C30.2425125,25.8753081 30.4141974,25.8522772 30.5008774,25.7982592 C30.5988634,25.7346102 30.7085743,25.5955872 30.8295912,25.3715593 L31.396989,24.3460558 L33.6280558,24.3460558 L33.2356929,25.0918385 Z" id="Fill-18" fill="#FEFEFE"></path>
                <path d="M36.4482532,24.3623031 L38.3619123,24.3623031 L38.0821914,25.3258325 C38.0821914,25.3258325 38.6876949,24.8417647 39.1110449,24.667986 C39.5314636,24.5126321 40.4853619,24.3719342 40.4853619,24.3719342 L43.5832283,24.3539282 L42.5284128,27.8692822 C42.3500279,28.4697607 42.142331,28.8587737 42.0129392,29.0371585 C41.8969472,29.2155434 41.7595992,29.3708973 41.4911844,29.5182951 C41.2311446,29.6585743 40.9924606,29.7372981 40.7730389,29.760329 C40.5686919,29.774985 40.2546341,29.78001 39.8195593,29.7862911 L36.834335,29.7862911 L35.9951725,32.5638185 C35.9151924,32.8401894 35.8775055,32.9725125 35.9298485,33.0478863 C35.9721416,33.1119541 36.0734776,33.1869093 36.2141755,33.1869093 L37.5311246,33.0625424 L37.0797188,34.5871884 L35.6090907,34.5871884 C35.139679,34.5871884 34.7992403,34.5758824 34.5605563,34.5578764 C34.3331785,34.5381954 34.0961695,34.5578764 33.9357906,34.4368594 C33.8001176,34.3158425 33.5907458,34.1554636 33.5957707,33.9934098 C33.6104267,33.8430808 33.6740758,33.592672 33.7691306,33.2476271 L36.4482532,24.3623031 Z M40.511324,27.910319 L37.3757707,27.910319 L37.1827298,28.5413659 L39.8978644,28.5413659 C40.2169472,28.5040977 40.2839462,28.5497408 40.312002,28.5350847 L40.511324,27.910319 Z M37.5457807,27.3391525 C37.5457807,27.3391525 38.1592403,26.7784546 39.2094497,26.5967198 C39.4481336,26.552333 40.9384427,26.5674078 40.9384427,26.5674078 L41.1658205,25.8149252 L38.0038863,25.8149252 L37.5457807,27.3391525 Z" id="Fill-20" fill="#FEFEFE"></path>
                <path d="M42.0293121,30.031675 L41.8509272,30.8758624 C41.7759721,31.1405085 41.7102293,31.3368993 41.5109073,31.5069093 C41.3015354,31.6852941 41.0561515,31.8720538 40.4820538,31.8720538 L39.4188634,31.9160219 L39.4104885,32.8695015 C39.3991825,33.1379163 39.4712064,33.1115354 39.5134995,33.1542473 C39.5624925,33.2032403 39.6068794,33.2212463 39.6525224,33.2409272 L39.9896112,33.2212463 L41.0038086,33.1655533 L40.5833898,34.5578764 L39.4188634,34.5578764 C38.603988,34.5578764 37.9989033,34.5381954 37.8025125,34.3828415 C37.6061216,34.2584746 37.5801595,34.1031206 37.5835095,33.8347059 L37.6584646,30.115005 L39.5168495,30.115005 L39.4908873,30.8758624 L39.9372682,30.8758624 C40.0909472,30.8758624 40.1939581,30.8607876 40.2580259,30.8201695 C40.3149751,30.7774576 40.356012,30.7205085 40.3819741,30.6271286 L40.5687338,30.031675 L42.0293121,30.031675 Z" id="Fill-22" fill="#FEFEFE"></path>
                <path d="M15.5110648,11.3845125 C15.4474158,11.6889392 14.2548335,17.1878824 14.2514835,17.1929073 C13.9947936,18.3050907 13.8084526,19.0986102 13.1736371,19.6107338 C12.8139362,19.9080419 12.3935174,20.0520897 11.9060997,20.0520897 C11.1226301,20.0520897 10.6661994,19.6630768 10.5891505,18.9252502 L10.5744945,18.6714915 C10.5744945,18.6714915 10.8131785,17.1816012 10.8131785,17.1732263 C10.8131785,17.1732263 12.0648036,12.1612822 12.2888315,11.4988295 C12.3001376,11.4615613 12.3034875,11.4418804 12.3068375,11.4238744 C9.87100499,11.4452303 9.43928016,11.4238744 9.4099681,11.3845125 C9.39363709,11.4385304 9.33291924,11.7492383 9.33291924,11.7492383 L8.055332,17.3972542 L7.94603988,17.8767159 L7.73331805,19.443655 C7.73331805,19.9080419 7.82502293,20.2878425 8.00633898,20.6081815 C8.58881157,21.6257288 10.2491306,21.7777328 11.1879541,21.7777328 C12.3981236,21.7777328 13.533338,21.5210429 14.3004766,21.0516311 C15.6320818,20.2648116 15.9804766,19.0349611 16.2911844,17.9420399 L16.4352323,17.3809232 C16.4352323,17.3809232 17.7241256,12.1763569 17.9435474,11.4988295 C17.9515035,11.4615613 17.9548534,11.4418804 17.9661595,11.4238744 C16.1998983,11.4418804 15.6777248,11.4238744 15.5110648,11.3845125" id="Fill-24" fill="#FEFEFE"></path>
                <path d="M22.6428156,21.7238824 C21.7806221,21.7092263 21.4732642,21.7092263 20.4640917,21.7632443 L20.4264048,21.6861954 C20.5130847,21.3001137 20.6081396,20.9224068 20.6948195,20.5329751 L20.8191864,20.0061954 C21.0055274,19.1900638 21.1868435,18.2399342 21.2081994,17.9484885 C21.2278804,17.7751286 21.2885982,17.3400538 20.7894556,17.3400538 C20.5800837,17.3400538 20.3610808,17.4413898 20.1387278,17.5448195 C20.0172921,17.9798943 19.772327,19.2017886 19.6542413,19.7578804 C19.4042512,20.9303629 19.3891765,21.0664546 19.2765344,21.6455773 L19.2045105,21.7238824 C18.31468,21.7092263 18.0039721,21.7092263 16.9801436,21.7632443 L16.9340818,21.6748893 C17.1040917,20.9797747 17.2745204,20.2762851 17.4378305,19.5794955 C17.8682991,17.6884487 17.9713101,16.9656969 18.0873021,16.0038425 L18.1706321,15.9481496 C19.1701735,15.8074516 19.4122074,15.7781396 20.4934038,15.5587178 L20.5851087,15.6604726 L20.4184487,16.2622074 C20.6031147,16.1524965 20.7781496,16.0432044 20.9628156,15.9481496 C21.4732642,15.6977408 22.0410808,15.6227856 22.3517886,15.6227856 C22.8274816,15.6227856 23.3463051,15.7551087 23.5619581,16.3032443 C23.7667238,16.792337 23.6306321,17.3923968 23.3609611,18.5766042 L23.2219382,19.1821077 C22.9455673,20.4986381 22.8995055,20.740672 22.7441515,21.6455773 L22.6428156,21.7238824 Z" id="Fill-26" fill="#FEFEFE"></path>
                <path d="M26.1530608,21.7238824 C25.6313061,21.7205324 25.2942173,21.7092263 24.9688534,21.7205324 C24.6434895,21.7238824 24.3260818,21.7402134 23.8415952,21.7632443 L23.8156331,21.7205324 L23.7846461,21.6748893 C23.9169691,21.1757468 23.988993,21.0023868 24.054317,20.8244207 C24.1213161,20.6460359 24.1820339,20.469326 24.2997009,19.9622273 C24.4521236,19.2997747 24.5450847,18.838319 24.6058026,18.4329751 C24.6778265,18.0401934 24.7150947,17.7064546 24.7691127,17.3203729 L24.8067996,17.2910608 L24.8478365,17.2533739 C25.3662413,17.18135 25.6949551,17.1323569 26.0320439,17.078339 C26.3720638,17.0343709 26.7141775,16.9656969 27.2505882,16.8626859 L27.2702692,16.908329 L27.2849252,16.957322 C27.1869392,17.3664347 27.0839282,17.7751286 26.9855234,18.1905224 C26.8908873,18.60801 26.7895513,19.0150289 26.6978465,19.4241416 C26.5048056,20.2942911 26.4260818,20.619655 26.3804387,20.8554078 C26.3347956,21.0744108 26.3230708,21.1954277 26.2481157,21.6455773 L26.1987039,21.6861954 L26.1530608,21.7238824 Z" id="Fill-28" fill="#FEFEFE"></path>
                <path d="M33.9145184,18.7468654 C34.2172702,17.4186102 33.9815174,16.7988694 33.6854656,16.4207438 C33.2357348,15.8449711 32.4405404,15.6603051 31.6164526,15.6603051 C31.12066,15.6603051 29.9398026,15.7092981 29.0173101,16.5597667 C28.3548574,17.1732263 28.0487557,18.0056889 27.8640897,18.8042333 C27.67733,19.617015 27.4633519,21.0809432 28.8096132,21.6257288 C29.225007,21.8041137 29.8233918,21.8531067 30.2094736,21.8531067 C31.1960339,21.8531067 32.2068814,21.5817607 32.96732,20.7752602 C33.5531426,20.1207637 33.8211386,19.1476032 33.9145184,18.7468654 M31.6507896,18.6518106 C31.6080778,18.8762572 31.4116869,19.7087198 31.1470409,20.0638146 C30.9619561,20.3255294 30.7429531,20.4838146 30.5009192,20.4838146 C30.4288953,20.4838146 30.0001017,20.4838146 29.9938205,19.8477428 C29.9904706,19.5336849 30.0541196,19.2129272 30.1328435,18.8645324 C30.3602213,17.8587099 30.6282173,17.0145224 31.3137009,17.0145224 C31.8501117,17.0145224 31.8894736,17.6426381 31.6507896,18.6518106" id="Fill-30" fill="#FEFEFE"></path>
                <path d="M55.0381735,21.8121954 C53.994664,21.8038205 53.6952622,21.8038205 52.7317328,21.8448574 L52.6714337,21.7665523 C52.9314736,20.7749671 53.1931884,19.7871505 53.4268475,18.784678 C53.7295992,17.4840598 53.7982732,16.931318 53.8962592,16.1704606 L53.9749831,16.1068116 C55.0122114,15.9594138 55.2998883,15.9171206 56.3777348,15.7173799 L56.4087218,15.8074098 C56.2110748,16.6252164 56.0180339,17.4384167 55.824993,18.2595733 C55.4292802,19.9734915 55.2852323,20.8436411 55.1332283,21.7401715 L55.0381735,21.8121954 Z" id="Fill-32" fill="#FEFEFE"></path>
                <path d="M55.5337986,18.864658 C55.8365503,17.5447777 54.614656,18.746991 54.4216152,18.3119163 C54.1238883,17.6314576 54.3085543,16.2542094 53.1096909,15.7927537 C52.6482353,15.6110189 51.5653639,15.8450967 50.6349153,16.6926341 C49.9804187,17.2977188 49.6663609,18.1268315 49.4879761,18.9220259 C49.2999601,19.7235015 49.0843071,21.1874297 50.4238684,21.7091844 C50.8505683,21.8909192 51.2333001,21.9445184 51.6227318,21.9252562 C52.968993,21.8532323 53.9944965,19.8181376 54.7553539,19.014987 C55.3407577,18.3772403 55.4437687,19.2540897 55.5337986,18.864658 M53.4727418,18.766672 C53.4203988,18.982325 53.222333,19.8214875 52.9576869,20.1732323 C52.7809771,20.4236411 52.3605583,20.578995 52.1185244,20.578995 C52.0498504,20.578995 51.6260818,20.578995 51.6114257,19.9542293 C51.6080758,19.6431027 51.6717248,19.3227637 51.7521236,18.9710189 C51.9828514,17.9832024 52.2474975,17.1469711 52.934656,17.1469711 C53.4727418,17.1469711 53.7034696,17.7558245 53.4727418,18.766672" id="Fill-34" fill="#FEFEFE"></path>
                <path d="M39.8162094,21.7238824 C38.9494098,21.7092263 38.6533579,21.7092263 37.6408355,21.7632443 L37.6031486,21.6861954 C37.6898285,21.3001137 37.7878146,20.9224068 37.8778445,20.5329751 L37.9955115,20.0061954 C38.1852024,19.1900638 38.3669372,18.2399342 38.3849432,17.9484885 C38.4046241,17.7751286 38.4649232,17.3400538 37.9695494,17.3400538 C37.7534776,17.3400538 37.5378245,17.4413898 37.3150528,17.5448195 C37.1973858,17.9798943 36.9469771,19.2017886 36.8259601,19.7578804 C36.5839262,20.9303629 36.5659202,21.0664546 36.4566281,21.6455773 L36.3795793,21.7238824 C35.4914237,21.7092263 35.185322,21.7092263 34.1598185,21.7632443 L34.1141755,21.6748893 C34.2841854,20.9797747 34.4541954,20.2762851 34.6179242,19.5794955 C35.0479741,17.6884487 35.1463789,16.9656969 35.2673958,16.0038425 L35.3440259,15.9481496 C36.3418923,15.8074516 36.5889511,15.7781396 37.6701476,15.5587178 L37.7534776,15.6604726 L37.5981236,16.2622074 C37.7765085,16.1524965 37.9582433,16.0432044 38.1395593,15.9481496 C38.646658,15.6977408 39.2174058,15.6227856 39.5285324,15.6227856 C39.9979442,15.6227856 40.5196989,15.7551087 40.7420518,16.3032443 C40.9430489,16.792337 40.8057009,17.3923968 40.5343549,18.5766042 L40.398682,19.1821077 C40.1139362,20.4986381 40.0728993,20.740672 39.9208953,21.6455773 L39.8162094,21.7238824 Z" id="Fill-36" fill="#FEFEFE"></path>
                <path d="M48.2368953,14.6052383 C48.0848913,15.2940718 47.6380917,15.8727757 47.063994,16.1524965 C46.5912323,16.3899242 46.0125284,16.4096052 45.4153998,16.4096052 L45.029318,16.4096052 L45.0586301,16.2542512 C45.0586301,16.2542512 45.7700758,13.1593161 45.7671446,13.1706221 L45.7897567,13.0119182 L45.7998066,12.8909013 L46.0841336,12.9206321 C46.0841336,12.9206321 47.5514118,13.0462552 47.5857488,13.0496052 C48.1648714,13.2736331 48.4035553,13.8510808 48.2368953,14.6052383 M47.3030967,11.3779801 C47.2980718,11.3779801 46.5832762,11.38468 46.5832762,11.38468 C44.7152602,11.4072921 43.9661276,11.401011 43.6583509,11.363324 C43.6323888,11.498997 43.5833958,11.7410309 43.5833958,11.7410309 C43.5833958,11.7410309 42.9142433,14.8422473 42.9142433,14.8472722 C42.9142433,14.8472722 41.3129671,21.4408116 41.2375932,21.7515194 C42.8686002,21.7322572 43.537334,21.7322572 43.8187298,21.7632443 C43.8827976,21.4525364 44.2605045,19.6104826 44.2638544,19.6104826 C44.2638544,19.6104826 44.5858684,18.2596152 44.6055494,18.2102034 C44.6055494,18.2102034 44.7068853,18.0695055 44.8082213,18.0142313 L44.9572941,18.0142313 C46.3638544,18.0142313 47.9521496,18.0142313 49.1970748,17.0980199 C50.0441934,16.4699043 50.6233161,15.5423868 50.881681,14.4155474 C50.9490987,14.1391765 50.9980917,13.8104626 50.9980917,13.48133 C50.9980917,13.0496052 50.9114118,12.6229053 50.661003,12.2891665 C50.0261874,11.401011 48.762,11.38468 47.3030967,11.3779801" id="Fill-38" fill="#FEFEFE"></path>
                <path d="M63.5733858,15.70934 L63.4900558,15.6142851 C62.4235155,15.8303569 62.2304746,15.8646939 61.2506142,15.9970169 L61.1785902,16.0690409 C61.1752403,16.0807657 61.1723091,16.0987717 61.1672841,16.1151027 L61.1639342,16.0987717 C60.4344826,17.7817029 60.4558385,17.418652 59.8620598,18.7435573 C59.8587099,18.6832582 59.8587099,18.6455713 59.8553599,18.5815035 L59.7067059,15.70934 L59.613326,15.6142851 C58.4961176,15.8303569 58.4697368,15.8646939 57.4379521,15.9970169 L57.3575533,16.0690409 C57.3462473,16.1033779 57.3462473,16.1410648 57.3395474,16.1821017 L57.3462473,16.1967577 C57.4752203,16.8558604 57.4442333,16.7088814 57.5736251,17.7490409 C57.6339242,18.2594895 57.714323,18.7728694 57.7746221,19.2770369 C57.8763769,20.1208056 57.933326,20.5361994 58.0576929,21.8238365 C57.3609033,22.9737069 57.1959182,23.4087817 56.5250907,24.4179541 L56.5678026,24.5125902 C57.5736251,24.475322 57.8072841,24.475322 58.5534855,24.475322 L58.7151206,24.2902373 C59.2795872,23.0750429 63.5733858,15.70934 63.5733858,15.70934" id="Fill-40" fill="#FEFEFE"></path>
                <path d="M27.0985005,16.4208694 C27.6709232,16.0234816 27.7429472,15.475346 27.2622293,15.1906002 C26.7748116,14.9029232 25.919318,14.9946281 25.3435454,15.392016 C24.7694477,15.7814477 24.7037049,16.3341894 25.1894477,16.6252164 C25.6689093,16.9049372 26.5277527,16.8216072 27.0985005,16.4208694" id="Fill-42" fill="#FEFEFE"></path>
                <path d="M58.6400399,24.3917408 L57.8008774,25.8297069 C57.5358126,26.3217308 57.0433699,26.6881316 56.2599003,26.6914816 L54.9253639,26.6684506 L55.3147956,25.3749511 L55.5765105,25.3749511 C55.7121834,25.3749511 55.8101695,25.3682512 55.8855434,25.3305643 C55.9542173,25.3079521 56.0032104,25.2539342 56.0572283,25.1752104 L56.5530209,24.3917408 L58.6400399,24.3917408 Z" id="Fill-44" fill="#FEFEFE"></path>
            </g>
        </g>
    </g>
</svg>