<?xml version="1.0" encoding="UTF-8"?>
<svg width="49px" height="44px" viewBox="0 0 49 44" version="1.1" xmlns="http://www.w3.org/2000/svg" xmlns:xlink="http://www.w3.org/1999/xlink">
    <!-- Generator: Sketch 49.1 (51147) - http://www.bohemiancoding.com/sketch -->
    <title>Alipay</title>
    <desc>Created with Sketch.</desc>
    <defs></defs>
    <g id="Page-1-Copy-2" stroke="none" stroke-width="1" fill="none" fill-rule="evenodd">
        <g id="Artboard-Copy" transform="translate(-580.000000, -61.000000)">
            <g id="Alipay" transform="translate(581.000000, 62.000000)">
                <path d="M41.9251398,8.24573036 C37.7463258,3.25911429 30.864183,0.000167857143 23.0756116,0.000167857143 C10.3309026,0.000167857143 2.0723104e-05,8.71719911 2.0723104e-05,19.4707571 C2.0723104e-05,25.3377839 3.1082791,30.6187795 7.97323501,34.1880518 C8.36365829,34.4702616 8.61917416,34.9333375 8.61917416,35.4566321 C8.61917416,35.629525 8.5827015,35.78815 8.53814683,35.9530696 C8.14958862,37.4207705 7.52748104,39.7705607 7.49826146,39.880717 C7.44997663,40.0647304 7.3743373,40.256717 7.3743373,40.4499625 C7.3743373,40.8798866 7.71875529,41.2286098 8.14378616,41.2286098 C8.31060714,41.2286098 8.44696517,41.1658732 8.58788228,41.083833 L13.6397606,38.1308063 C14.0198223,37.9083955 14.4220578,37.7711723 14.8651177,37.7711723 C15.1009466,37.7711723 15.3289008,37.8076813 15.5435922,37.8741946 C17.9004308,38.5605205 20.4427412,38.9419759 23.0756116,38.9419759 C35.8201133,38.9419759 46.1516168,30.2243152 46.1516168,19.4707571 C46.1516168,16.2136991 45.1989757,13.1463196 43.5233056,10.4484357 L41.9251398,8.24573036 Z" id="Fill-1" stroke="#FFFFFF" stroke-width="2" fill="#FFFFFF"></path>
                <path d="M16.7851133,26.0795027 C16.5766389,26.1858821 16.3418461,26.2473598 16.0925472,26.2473598 C15.5160304,26.2473598 15.0143241,25.9257036 14.7509334,25.450458 L14.6502191,25.2267884 L10.4492315,15.8933018 C10.4036407,15.7917482 10.3754572,15.6769759 10.3754572,15.5651411 C10.3754572,15.1350071 10.719668,14.7862839 11.1449061,14.7862839 C11.3173223,14.7862839 11.476683,14.8439848 11.6051662,14.9411321 L16.5621327,18.5146009 C16.924787,18.7546366 17.3572782,18.895217 17.8225119,18.895217 C18.1004087,18.895217 18.3648355,18.8429714 18.6116477,18.7519089 L41.9251398,8.24573036 C37.7463258,3.25911429 30.864183,0.000167857143 23.0756116,0.000167857143 C10.3309026,0.000167857143 2.0723104e-05,8.71719911 2.0723104e-05,19.4707571 C2.0723104e-05,25.3377839 3.1082791,30.6187795 7.97323501,34.1880518 C8.36365829,34.4702616 8.61917416,34.9333375 8.61917416,35.4566321 C8.61917416,35.629525 8.5827015,35.78815 8.53814683,35.9530696 C8.14958862,37.4207705 7.52748104,39.7705607 7.49826146,39.880717 C7.44997663,40.0647304 7.3743373,40.256717 7.3743373,40.4499625 C7.3743373,40.8798866 7.71875529,41.2286098 8.14378616,41.2286098 C8.31060714,41.2286098 8.44696517,41.1658732 8.58788228,41.083833 L13.6397606,38.1308063 C14.0198223,37.9083955 14.4220578,37.7711723 14.8651177,37.7711723 C15.1009466,37.7711723 15.3289008,37.8076813 15.5435922,37.8741946 C17.9004308,38.5605205 20.4427412,38.9419759 23.0756116,38.9419759 C35.8201133,38.9419759 46.1516168,30.2243152 46.1516168,19.4707571 C46.1516168,16.2136991 45.1989757,13.1463196 43.5233056,10.4484357 L16.9533849,25.9808866 L16.7851133,26.0795027 Z" id="Fill-1" fill="#22AB39"></path>
            </g>
        </g>
    </g>
</svg>